<?xml version="1.0" encoding="UTF-8"?>
<svg version="1.1" xmlns="http://www.w3.org/2000/svg" width="900" height="600">
<path d="M0 0 C297 0 594 0 900 0 C900 198 900 396 900 600 C603 600 306 600 0 600 C0 402 0 204 0 0 Z " fill="#FEFEFE" transform="translate(0,0)"/>
<path d="M0 0 C3.83471769 3.10196216 7.54014491 6.3387813 11.22753906 9.61376953 C12.44957031 10.68691406 12.44957031 10.68691406 13.69628906 11.78173828 C16.23118932 14.03357467 18.73308644 16.31717717 21.22753906 18.61376953 C21.7821582 19.12327148 22.33677734 19.63277344 22.90820312 20.15771484 C32.02481145 28.55318045 40.88545885 37.1723373 49.58081055 46.00390625 C53.70445637 50.17408434 57.90313326 54.1611751 62.3515625 57.98291016 C64.69690759 60.02180985 66.94475046 62.15125829 69.1965332 64.29223633 C76.00319004 70.75168643 83.09430397 76.6539553 90.56005859 82.33154297 C92.13250086 83.54068891 93.67904506 84.78330109 95.22363281 86.02783203 C115.98117207 102.60147196 139.83366845 115.12106436 163.1340332 127.68603516 C237.91614316 168.06392286 237.91614316 168.06392286 247.28222656 196.85595703 C257.18467165 236.22022221 223.63352568 284.5469927 205.91503906 317.61376953 C188.30210508 350.6751653 176.151177 385.77991474 167.32641602 422.11450195 C165.11143539 431.22842537 162.56449473 440.22871049 159.92138672 449.2265625 C159.27018485 451.46704521 158.64121392 453.71233358 158.02050781 455.96142578 C151.14496227 480.61607255 142.19212107 509.13048077 118.99707031 522.94189453 C78.16442965 545.05679943 22.16476699 525.7309361 -19.5324707 515.15039062 C-32.14981128 511.95842397 -44.78684066 508.98196245 -57.52246094 506.30126953 C-70.6138068 503.54503987 -83.58875828 500.51555449 -96.54980469 497.18798828 C-100.42684733 496.19428501 -104.30654727 495.25023514 -108.21386719 494.38330078 C-161.14157178 482.62658513 -210.77960129 456.66485836 -241.18359375 410.46972656 C-253.06349059 391.65055713 -260.19911053 370.21687327 -260.08496094 347.92626953 C-260.08004639 346.7814209 -260.07513184 345.63657227 -260.07006836 344.45703125 C-259.94649042 335.48463912 -258.9431593 327.34050426 -256.77246094 318.61376953 C-256.43794726 317.10259815 -256.10604975 315.59084598 -255.77636719 314.07861328 C-246.71100681 273.83020509 -226.01385351 236.58235185 -207.87652588 199.85119629 C-206.85343659 197.77786956 -205.83265838 195.70342792 -204.81298828 193.62841797 C-198.48499288 180.75693224 -191.93138928 168.0506706 -184.99511719 155.49658203 C-182.60509273 151.15993471 -180.26776107 146.79722706 -177.95605469 142.41845703 C-170.56612889 128.42859216 -162.98441723 114.6193897 -154.92871094 100.99658203 C-152.15297626 96.29472598 -149.5070376 91.53414076 -146.89746094 86.73876953 C-136.99245786 68.68710952 -126.05194925 51.1464383 -113.77246094 34.61376953 C-113.35335449 34.0444873 -112.93424805 33.47520508 -112.50244141 32.88867188 C-97.59029192 12.71271655 -77.94040151 -12.837201 -51.89355469 -18.14404297 C-31.84275824 -20.43345251 -15.41354864 -12.05483873 0 0 Z " fill="#8C3ECC" transform="translate(455.7724609375,43.38623046875)"/>
<path d="M0 0 C6.86984585 3.07698763 11.20816559 8.29305281 15.734375 14.1328125 C17.95163969 16.9387992 20.30048494 19.52137638 22.75 22.125 C29.18430172 29.29175288 33.01151345 35.07191763 32.54296875 45 C31.46284613 50.96787173 28.66657819 55.71051367 24.06640625 59.66015625 C18.08763986 63.65765503 11.84820516 64.89502678 4.8125 65.875 C0.18601413 66.53516599 -3.97371 67.55666078 -8.375 69.125 C-16.44071543 71.93046624 -16.44071543 71.93046624 -21 71 C-27.77323273 65.45826413 -28.68838176 56.41905006 -29.6875 48.125 C-30.74345954 34.15038651 -30.60963696 22.89210609 -22.03515625 11.33203125 C-16.24471386 4.6969178 -9.14355429 -1.19915466 0 0 Z " fill="#8D3FCC" transform="translate(782,54)"/>
<path d="M0 0 C8.5862554 0.15332599 17.14227672 4.57213055 24.83984375 8.078125 C28.79788354 9.67008797 32.65062685 10.57038488 36.8125 11.4375 C50.29672582 14.42172582 50.29672582 14.42172582 55.375 19.5 C55.375 24.9476847 53.9249504 28.64406699 51.5 33.5 C48.34216424 39.94348868 47.17482802 45.83748685 46.2109375 52.87109375 C45.26832614 56.96308417 44.07755578 59.2947504 41.375 62.5 C36.76583876 65.35652513 32.80600741 65.95587256 27.4921875 65.93359375 C26.38715378 65.94145653 26.38715378 65.94145653 25.25979614 65.94947815 C23.71178441 65.95586862 22.16372393 65.95460009 20.61572266 65.94604492 C18.24945098 65.93749802 15.88556717 65.96639176 13.51953125 65.99804688 C12.01041739 65.99965826 10.50129926 65.99908256 8.9921875 65.99609375 C8.28794647 66.00732773 7.58370544 66.01856171 6.85812378 66.03013611 C3.48096794 65.98221002 1.67783069 65.73130432 -1.03857422 63.65649414 C-3.42155527 60.41720949 -3.74726752 57.79014109 -3.80078125 53.88671875 C-4.03489422 43.89318691 -4.62279687 35.26946351 -7.7578125 25.75 C-9.55004851 19.03315154 -9.98184534 11.67479131 -7.22265625 5.21875 C-4.98986256 1.41917932 -4.47281465 0.61693995 0 0 Z " fill="#8C3FCC" transform="translate(74.625,485.5)"/>
</svg>
