<?xml version="1.0" encoding="UTF-8"?>
<svg version="1.1" xmlns="http://www.w3.org/2000/svg" width="900" height="600">
<path d="M0 0 C297 0 594 0 900 0 C900 198 900 396 900 600 C603 600 306 600 0 600 C0 402 0 204 0 0 Z " fill="#FEFEFE" transform="translate(0,0)"/>
<path d="M0 0 C1.08023437 0.17160645 2.16046875 0.34321289 3.2734375 0.52001953 C37.55566347 6.10886144 74.23171233 17.98715042 96.08984375 46.75 C123.23532351 87.61671789 110.62011921 141.58085582 103.05122375 186.64295959 C102.9041246 187.51875168 102.75702545 188.39454376 102.60546875 189.296875 C102.46147141 190.15401596 102.31747406 191.01115692 102.16911316 191.89427185 C100.64668235 201.01545179 99.39731046 210.160442 98.31494141 219.34375 C97.96523669 222.29319754 97.59841822 225.24027465 97.23046875 228.1875 C95.13234385 245.11546533 93.31784677 262.0080803 92.35449219 279.04125977 C90.85597851 305.45357154 89.32073166 332.46256399 82 358 C81.75411133 358.87076172 81.50822266 359.74152344 81.25488281 360.63867188 C75.85770183 379.28840389 67.76143546 396.26842727 55 411 C54.53867676 411.53818359 54.07735352 412.07636719 53.60205078 412.63085938 C32.77271053 436.69781127 5.12942095 453.40117919 -25 463.33447266 C-26.74017832 463.91354078 -28.46546844 464.53697924 -30.1875 465.16796875 C-81.03943022 482.81737538 -139.0366381 471.23807603 -186.27734375 448.8359375 C-194.1331877 445.0092338 -201.62815617 440.68369054 -209 436 C-210.0725 435.32324219 -211.145 434.64648438 -212.25 433.94921875 C-219.81217388 429.03577505 -226.95645486 423.61941698 -234 418 C-234.98097656 417.2265625 -235.96195312 416.453125 -236.97265625 415.65625 C-244.30250788 409.67887422 -251.04167299 403.1643476 -257.75 396.5 C-258.62527344 395.6339917 -259.50054687 394.7679834 -260.40234375 393.87573242 C-285.20807847 368.95037852 -303.93198413 337.91559084 -316 305 C-316.31211426 304.16968262 -316.62422852 303.33936523 -316.94580078 302.48388672 C-334.60088055 254.82163841 -330.85037362 202.98755186 -310 157 C-307.50125241 151.57534737 -304.80982959 146.26926317 -302 141 C-301.65888184 140.35111816 -301.31776367 139.70223633 -300.96630859 139.03369141 C-293.19168131 124.32816677 -283.69513429 110.73513212 -273 98 C-272.56751953 97.47873535 -272.13503906 96.9574707 -271.68945312 96.42041016 C-262.2958952 85.11657108 -252.3604276 74.37042072 -241 65 C-240.48630859 64.57251465 -239.97261719 64.1450293 -239.44335938 63.70458984 C-230.35113398 56.16600229 -220.99091247 49.29810849 -211 43 C-210.07985107 42.41822998 -210.07985107 42.41822998 -209.14111328 41.82470703 C-199.72624286 35.91719165 -190.03508436 30.76807608 -180 26 C-179.25153809 25.6390625 -178.50307617 25.278125 -177.73193359 24.90625 C-123.74938263 -0.98918981 -59.05420794 -9.65091887 0 0 Z " fill="#8C3ECC" transform="translate(558,65)"/>
<path d="M0 0 C8.55473464 0.21696791 16.86735198 4.5916951 24.5625 8 C29.43090968 10.09204753 34.22072816 11.32356487 39.375 12.4375 C53.48176279 15.54470959 53.48176279 15.54470959 57.75 19.4375 C59.18798204 23.30065016 58.84167434 25.72128079 57.203125 29.36328125 C56.47805567 30.83015742 55.74315367 32.29220239 55 33.75 C51.64809389 40.70412624 49.63362164 47.1041982 48.76269531 54.77856445 C48.16203684 59.6093543 46.84462189 62.67497411 43.75 66.4375 C40.98266562 68.11858087 38.7985388 68.70896412 35.58203125 68.8515625 C34.37752319 68.91017456 34.37752319 68.91017456 33.14868164 68.9699707 C31.86852173 69.01577271 31.86852173 69.01577271 30.5625 69.0625 C29.24076782 69.11506958 29.24076782 69.11506958 27.89233398 69.16870117 C26.07230483 69.23615805 24.25205469 69.29788637 22.43164062 69.35400391 C20.69829281 69.40797377 18.96515939 69.46961819 17.23242188 69.54052734 C14.92579932 69.63281098 12.62030599 69.69631226 10.3125 69.75 C9.62196533 69.77980957 8.93143066 69.80961914 8.2199707 69.84033203 C4.7000029 69.88141945 2.846759 69.49841271 -0.16015625 67.60546875 C-3.03587344 64.62224811 -3.36641746 62.20594294 -3.4609375 58.2265625 C-3.48728271 57.39979004 -3.51362793 56.57301758 -3.54077148 55.72119141 C-3.56856689 54.84382324 -3.5963623 53.96645508 -3.625 53.0625 C-3.99919635 43.78676412 -5.12941032 35.2671938 -8.32421875 26.484375 C-10.35327107 19.80648129 -10.48346127 12.09450863 -7.375 5.75 C-4.0347498 0.5431394 -4.0347498 0.5431394 0 0 Z " fill="#8C3FCC" transform="translate(96.25,471.5625)"/>
<path d="M0 0 C0.7022168 0.2563623 1.40443359 0.51272461 2.12792969 0.77685547 C8.77328419 3.29351553 15.20541109 6.27300255 21.625 9.3125 C22.61322754 9.77954346 23.60145508 10.24658691 24.61962891 10.7277832 C30.53741252 13.59693437 35.63976996 16.08465494 39.375 21.6875 C40.27372813 26.98581582 39.58582214 31.82819156 36.9765625 36.51171875 C33.36195621 41.42229363 28.78345657 45.5041561 24.375 49.6875 C20.05636938 53.8680922 16.37119045 58.35078642 12.65625 63.06640625 C9.32665353 66.89202137 5.95832566 70.30945234 0.8125 71.0625 C-6.72562259 70.24015935 -12.67327578 65.43306696 -17.7734375 60.05859375 C-21.19774403 55.67345859 -23.4289813 50.7726558 -25.625 45.6875 C-25.955 44.92824219 -26.285 44.16898438 -26.625 43.38671875 C-30.85523016 32.91283157 -31.40092597 19.59531784 -27.67578125 8.87890625 C-21.85551512 -3.25926958 -11.83198883 -4.46283952 0 0 Z " fill="#8C3FCC" transform="translate(784.625,58.3125)"/>
</svg>
