<?xml version="1.0" encoding="UTF-8"?>
<svg version="1.1" xmlns="http://www.w3.org/2000/svg" width="960" height="640">
<path d="M0 0 C297 0 594 0 900 0 C900 198 900 396 900 600 C603 600 306 600 0 600 C0 402 0 204 0 0 Z " fill="#FEFEFE" transform="translate(30,19)"/>
<path d="M0 0 C2.22736718 1.93758381 4.43184012 3.89881743 6.625 5.875 C7.47964844 6.64505371 7.47964844 6.64505371 8.3515625 7.43066406 C17.61092026 15.81287414 26.49029796 24.38451428 34.625 33.875 C35.47578125 34.83664063 36.3265625 35.79828125 37.203125 36.7890625 C45.93271407 46.71217342 53.8383602 57.2025222 61.625 67.875 C62.1509375 68.59558594 62.676875 69.31617188 63.21875 70.05859375 C95.6491588 114.73486003 124.86266287 163.55727552 149.625 212.875 C150.06569824 213.74705078 150.50639648 214.61910156 150.96044922 215.51757812 C159.64823191 232.81684362 166.95228847 251.06495205 171.625 269.875 C171.89828125 270.94363281 172.1715625 272.01226562 172.453125 273.11328125 C173.24546529 276.35643882 173.95504063 279.60448826 174.625 282.875 C174.93630859 284.33099609 174.93630859 284.33099609 175.25390625 285.81640625 C178.66526008 304.87704756 178.03236431 325.29332993 172.625 343.875 C172.3995752 344.6892041 172.17415039 345.5034082 171.94189453 346.34228516 C165.94384676 367.62659997 155.74020288 386.88422643 141.625 403.875 C141.10341309 404.50792969 140.58182617 405.14085937 140.04443359 405.79296875 C117.51101547 432.99584633 88.75534307 452.73642963 55.625 464.875 C54.43132812 465.31714844 53.23765625 465.75929688 52.0078125 466.21484375 C39.87386722 470.36460258 27.31578851 472.23710175 14.625 473.875 C13.79967773 473.98175049 12.97435547 474.08850098 12.12402344 474.19848633 C2.62333002 475.2391885 -6.9551349 475.07477548 -16.5 475.0625 C-17.90593414 475.06109512 -17.90593414 475.06109512 -19.340271 475.05966187 C-59.79979298 474.97209461 -100.48948746 468.7092587 -139.7734375 458.98828125 C-143.57835559 458.04980515 -147.39921879 457.19769041 -151.2265625 456.35546875 C-191.38447265 447.51326631 -230.64144466 436.38784609 -268.375 419.875 C-269.23786621 419.49811035 -270.10073242 419.1212207 -270.98974609 418.73291016 C-314.94454498 399.28179904 -358.10892242 369.6929979 -389.375 332.875 C-390.21933594 331.91851562 -391.06367188 330.96203125 -391.93359375 329.9765625 C-431.38062301 284.94273634 -458.9653368 223.2083215 -455.23876953 162.66162109 C-454.87710508 158.67511579 -454.1881761 154.79133085 -453.375 150.875 C-453.13007813 149.60914063 -452.88515625 148.34328125 -452.6328125 147.0390625 C-448.65320859 128.11465338 -438.54468688 112.78602687 -425.375 98.875 C-424.63765625 98.07320312 -423.9003125 97.27140625 -423.140625 96.4453125 C-394.1003682 65.94329781 -350.78730086 48.94472967 -313.765625 30.55371094 C-291.62538314 19.55482756 -269.78676671 8.29679762 -248.49462891 -4.28662109 C-160.04005724 -56.41237823 -86.68422688 -72.87006084 0 0 Z " fill="#8C3ECC" transform="translate(619.375,108.125)"/>
<path d="M0 0 C14.35835115 1.91553457 27.21337021 7.71976706 36.5546875 19.03271484 C40.3846365 24.44908879 41.45470691 29.55867802 41.7421875 36.11083984 C40.78551717 39.61653309 38.94837958 41.00029897 36.1484375 43.28662109 C33.04664008 44.95695891 29.83658969 46.30894989 26.5859375 47.66162109 C19.61322267 50.66588311 13.08362304 53.81858605 6.65625 57.87646484 C-0.99691777 62.17988161 -9.80372067 62.50763648 -18.328125 60.78662109 C-23.97514946 58.86794097 -27.83428858 55.57286487 -31.7265625 51.16162109 C-33.89475509 45.62068446 -34.32105313 40.74997187 -31.9375 35.13232422 C-29.89963559 30.99767755 -27.64969362 26.99077545 -25.390625 22.97412109 C-22.67836454 18.11375034 -20.7949342 13.25019557 -19.08203125 7.95068359 C-15.01693341 -0.85057586 -8.59161626 -0.79248877 0 0 Z " fill="#8C3FCC" transform="translate(816.8515625,67.71337890625)"/>
<path d="M0 0 C1.30324219 -0.02126953 1.30324219 -0.02126953 2.6328125 -0.04296875 C4.875 0.1875 4.875 0.1875 6.875 2.1875 C7.13378906 4.07250977 7.13378906 4.07250977 7.140625 6.37890625 C7.14481445 7.23291016 7.14900391 8.08691406 7.15332031 8.96679688 C7.14397461 9.88525391 7.13462891 10.80371094 7.125 11.75 C7.11484863 13.16442383 7.11484863 13.16442383 7.10449219 14.60742188 C6.84141416 32.75368765 5.31697624 52.49177025 -8.0625 66.16796875 C-13.04176661 70.53520051 -15.99395493 71.60043985 -22.45703125 71.53515625 C-30.01440519 70.55037399 -35.32691188 64.45762331 -40.046875 58.94140625 C-47.59356756 48.94062006 -54.20836596 34.33013567 -53.625 21.66015625 C-52.72705655 17.21954529 -50.57833354 14.96325403 -47.125 12.1875 C-39.52909316 7.3949746 -31.47126842 5.63254277 -22.75 3.9375 C-20.26298957 3.43244557 -17.77600906 2.92724382 -15.2890625 2.421875 C-14.20061035 2.20756836 -13.1121582 1.99326172 -11.99072266 1.77246094 C-10.28496829 1.42427663 -8.58372278 1.04986805 -6.89648438 0.62084961 C-4.57415 0.05274824 -2.38786313 0.01781987 0 0 Z " fill="#8C3FCC" transform="translate(161.125,489.8125)"/>
</svg>
