<?xml version="1.0" encoding="UTF-8"?>
<svg version="1.1" xmlns="http://www.w3.org/2000/svg" width="900" height="600">
<path d="M0 0 C297 0 594 0 900 0 C900 198 900 396 900 600 C603 600 306 600 0 600 C0 402 0 204 0 0 Z " fill="#FEFEFE" transform="translate(0,0)"/>
<path d="M0 0 C1.5173877 0.28037109 1.5173877 0.28037109 3.06542969 0.56640625 C46.05230688 8.74861058 87.36750164 30.11435726 120 59 C121.33998047 60.17369141 121.33998047 60.17369141 122.70703125 61.37109375 C132.00738495 69.61426439 140.27523766 78.26450875 148 88 C148.86204125 89.04919712 149.72536164 90.09734435 150.58984375 91.14453125 C158.27611253 100.55262446 164.78553026 110.57114342 171 121 C171.46937988 121.78616699 171.93875977 122.57233398 172.42236328 123.38232422 C183.78131468 142.64280888 192.78305873 163.51264445 199 185 C199.28327148 185.97453125 199.56654297 186.9490625 199.85839844 187.953125 C208.54312762 218.35431146 212.39932731 249.51774446 212.26074219 281.10449219 C212.25000163 283.99956174 212.26073562 286.89401117 212.2734375 289.7890625 C212.28852573 307.76844617 211.14714097 325.66523238 207.5625 343.3125 C207.31153564 344.55177246 207.06057129 345.79104492 206.80200195 347.06787109 C194.52883076 405.20149536 163.21105345 457.07607214 113.2421875 490.1796875 C98.20350755 499.95611405 83.05465734 507.76868522 66.28320312 514.12890625 C64.32128058 514.87742418 62.37037182 515.65469778 60.421875 516.4375 C53.28295241 519.1965039 46.08879778 521.03260323 38.625 522.6875 C37.71645264 522.89012451 36.80790527 523.09274902 35.87182617 523.30151367 C21.9592034 526.24048933 8.25067532 527.38708539 -5.9375 527.3125 C-7.0534404 527.30926727 -7.0534404 527.30926727 -8.19192505 527.30596924 C-55.26139908 527.08751425 -96.41583614 503.13942526 -132 474 C-133.38638672 472.88431641 -133.38638672 472.88431641 -134.80078125 471.74609375 C-145.62400217 462.99040563 -156.13017032 453.89047033 -166.34765625 444.4375 C-168.47490534 442.48256122 -170.62272252 440.57117955 -172.8125 438.6875 C-177.3962788 434.71362108 -181.79858559 430.54628845 -186.2253418 426.3996582 C-191.1346201 421.80188696 -196.07896748 417.24573656 -201.04296875 412.70703125 C-204.18333215 409.83509291 -207.31129902 406.94983888 -210.4375 404.0625 C-210.97415283 403.56709717 -211.51080566 403.07169434 -212.0637207 402.5612793 C-214.85503492 399.98381408 -217.64383119 397.40367613 -220.4296875 394.8203125 C-225.53530638 390.08974052 -230.653905 385.38683168 -235.91796875 380.83203125 C-239.13491793 378.00135739 -242.2797068 375.09232984 -245.43334961 372.19165039 C-251.01766951 367.05738115 -256.65562895 361.98342712 -262.31640625 356.93359375 C-264.88775833 354.63335622 -267.44683128 352.3204114 -270 350 C-270.51062988 349.5359375 -271.02125977 349.071875 -271.54736328 348.59375 C-280.07326251 340.81484818 -288.32984295 332.77452534 -296.5 324.625 C-297.89750488 323.23438354 -297.89750488 323.23438354 -299.32324219 321.81567383 C-304.4230638 316.70435785 -309.33773433 311.51289992 -314 306 C-314.8355542 305.02450195 -314.8355542 305.02450195 -315.68798828 304.02929688 C-331.98887383 284.90665574 -347.09830924 263.49950833 -354 239 C-354.18328857 238.36835938 -354.36657715 237.73671875 -354.55541992 237.0859375 C-356.33167051 230.24709873 -356.26096338 223.52928541 -356.1875 216.5 C-356.18685547 215.32824219 -356.18621094 214.15648437 -356.18554688 212.94921875 C-356.09491512 195.00413202 -351.8472514 180.27555089 -344.125 164.125 C-343.63153076 163.09181641 -343.13806152 162.05863281 -342.62963867 160.99414062 C-334.15411192 143.73066353 -322.62896464 128.41165653 -310 114 C-309.30777344 113.195625 -308.61554688 112.39125 -307.90234375 111.5625 C-302.96584966 105.93166281 -297.71857713 100.61749402 -292.4375 95.3125 C-291.72899902 94.59932617 -291.02049805 93.88615234 -290.29052734 93.15136719 C-267.28603643 70.21618297 -239.52779028 50.20094349 -210.87451172 35.00341797 C-208.95517188 33.9760037 -207.05748138 32.91511078 -205.16015625 31.84765625 C-174.26530287 14.69099953 -140.66914391 4.08674352 -106 -2 C-105.07026367 -2.16806152 -104.14052734 -2.33612305 -103.18261719 -2.50927734 C-69.36528208 -8.36391107 -33.56445925 -6.4352565 0 0 Z " fill="#8C3ECC" transform="translate(522,39)"/>
<path d="M0 0 C9.70610605 5.03279573 14.05964646 12.75785434 18.44921875 22.26171875 C21.3235163 28.47073788 25.10216577 34.11828518 29.08984375 39.6640625 C31.43297599 42.96749484 33.15272172 45.4768983 34.0703125 49.453125 C32.88164133 53.81158597 29.29023577 56.0475864 25.52148438 58.25830078 C23.59719178 59.26125014 21.65592254 60.21072889 19.6953125 61.140625 C18.27440918 61.82613849 16.85383903 62.51234297 15.43359375 63.19921875 C14.7370166 63.53421387 14.04043945 63.86920898 13.32275391 64.21435547 C11.50048915 65.11415701 9.71080168 66.07918785 7.92578125 67.05078125 C1.96448924 70.28778577 -2.85953833 72.71998092 -9.6796875 71.203125 C-13.84436673 69.84358096 -17.74020163 68.11256968 -21.6796875 66.203125 C-22.6696875 65.73390625 -23.6596875 65.2646875 -24.6796875 64.78125 C-30.17341811 62.00452746 -35.88399212 58.95966232 -38.6796875 53.203125 C-39.47223574 47.63127074 -37.38181034 43.9471712 -34.8046875 39.203125 C-30.54500393 31.19552196 -28.36711837 24.2023507 -27.55664062 15.125 C-26.93410313 9.24734867 -25.56522888 4.94725078 -21.1796875 0.890625 C-14.88631362 -3.35740237 -6.87656366 -2.63561673 0 0 Z " fill="#8C3FCC" transform="translate(138.6796875,450.796875)"/>
<path d="M0 0 C8.5862554 0.15332599 17.14227672 4.57213055 24.83984375 8.078125 C28.79788354 9.67008797 32.65062685 10.57038488 36.8125 11.4375 C50.29672582 14.42172582 50.29672582 14.42172582 55.375 19.5 C55.375 24.9476847 53.9249504 28.64406699 51.5 33.5 C48.34216424 39.94348868 47.17482802 45.83748685 46.2109375 52.87109375 C45.26832614 56.96308417 44.07755578 59.2947504 41.375 62.5 C36.76583876 65.35652513 32.80600741 65.95587256 27.4921875 65.93359375 C26.38715378 65.94145653 26.38715378 65.94145653 25.25979614 65.94947815 C23.71178441 65.95586862 22.16372393 65.95460009 20.61572266 65.94604492 C18.24945098 65.93749802 15.88556717 65.96639176 13.51953125 65.99804688 C12.01041739 65.99965826 10.50129926 65.99908256 8.9921875 65.99609375 C8.28794647 66.00732773 7.58370544 66.01856171 6.85812378 66.03013611 C3.48096794 65.98221002 1.67783069 65.73130432 -1.03857422 63.65649414 C-3.42155527 60.41720949 -3.74726752 57.79014109 -3.80078125 53.88671875 C-4.03489422 43.89318691 -4.62279687 35.26946351 -7.7578125 25.75 C-9.55004851 19.03315154 -9.98184534 11.67479131 -7.22265625 5.21875 C-4.98986256 1.41917932 -4.47281465 0.61693995 0 0 Z " fill="#8C3FCC" transform="translate(771.625,54.5)"/>
</svg>
