<?xml version="1.0" encoding="UTF-8"?>
<svg version="1.1" xmlns="http://www.w3.org/2000/svg" width="900" height="600">
<path d="M0 0 C297 0 594 0 900 0 C900 198 900 396 900 600 C603 600 306 600 0 600 C0 402 0 204 0 0 Z " fill="#FEFEFE" transform="translate(0,0)"/>
<path d="M0 0 C2.22736718 1.93758381 4.43184012 3.89881743 6.625 5.875 C7.47964844 6.64505371 7.47964844 6.64505371 8.3515625 7.43066406 C17.61092026 15.81287414 26.49029796 24.38451428 34.625 33.875 C35.47578125 34.83664063 36.3265625 35.79828125 37.203125 36.7890625 C45.93271407 46.71217342 53.8383602 57.2025222 61.625 67.875 C62.1509375 68.59558594 62.676875 69.31617188 63.21875 70.05859375 C95.6491588 114.73486003 124.86266287 163.55727552 149.625 212.875 C150.06569824 213.74705078 150.50639648 214.61910156 150.96044922 215.51757812 C159.64823191 232.81684362 166.95228847 251.06495205 171.625 269.875 C171.89828125 270.94363281 172.1715625 272.01226562 172.453125 273.11328125 C173.24546529 276.35643882 173.95504063 279.60448826 174.625 282.875 C174.93630859 284.33099609 174.93630859 284.33099609 175.25390625 285.81640625 C178.66526008 304.87704756 178.03236431 325.29332993 172.625 343.875 C172.3995752 344.6892041 172.17415039 345.5034082 171.94189453 346.34228516 C165.94384676 367.62659997 155.74020288 386.88422643 141.625 403.875 C141.10341309 404.50792969 140.58182617 405.14085937 140.04443359 405.79296875 C117.51101547 432.99584633 88.75534307 452.73642963 55.625 464.875 C54.43132812 465.31714844 53.23765625 465.75929688 52.0078125 466.21484375 C39.87386722 470.36460258 27.31578851 472.23710175 14.625 473.875 C13.79967773 473.98175049 12.97435547 474.08850098 12.12402344 474.19848633 C2.62333002 475.2391885 -6.9551349 475.07477548 -16.5 475.0625 C-17.90593414 475.06109512 -17.90593414 475.06109512 -19.340271 475.05966187 C-59.79979298 474.97209461 -100.48948746 468.7092587 -139.7734375 458.98828125 C-143.57835559 458.04980515 -147.39921879 457.19769041 -151.2265625 456.35546875 C-191.38447265 447.51326631 -230.64144466 436.38784609 -268.375 419.875 C-269.23786621 419.49811035 -270.10073242 419.1212207 -270.98974609 418.73291016 C-314.94454498 399.28179904 -358.10892242 369.6929979 -389.375 332.875 C-390.21933594 331.91851562 -391.06367188 330.96203125 -391.93359375 329.9765625 C-431.38062301 284.94273634 -458.9653368 223.2083215 -455.23876953 162.66162109 C-454.87710508 158.67511579 -454.1881761 154.79133085 -453.375 150.875 C-453.13007813 149.60914063 -452.88515625 148.34328125 -452.6328125 147.0390625 C-448.65320859 128.11465338 -438.54468688 112.78602687 -425.375 98.875 C-424.63765625 98.07320312 -423.9003125 97.27140625 -423.140625 96.4453125 C-394.1003682 65.94329781 -350.78730086 48.94472967 -313.765625 30.55371094 C-291.62538314 19.55482756 -269.78676671 8.29679762 -248.49462891 -4.28662109 C-160.04005724 -56.41237823 -86.68422688 -72.87006084 0 0 Z " fill="#8C3ECC" transform="translate(589.375,89.125)"/>
<path d="M0 0 C9.70610605 5.03279573 14.05964646 12.75785434 18.44921875 22.26171875 C21.3235163 28.47073788 25.10216577 34.11828518 29.08984375 39.6640625 C31.43297599 42.96749484 33.15272172 45.4768983 34.0703125 49.453125 C32.88164133 53.81158597 29.29023577 56.0475864 25.52148438 58.25830078 C23.59719178 59.26125014 21.65592254 60.21072889 19.6953125 61.140625 C18.27440918 61.82613849 16.85383903 62.51234297 15.43359375 63.19921875 C14.7370166 63.53421387 14.04043945 63.86920898 13.32275391 64.21435547 C11.50048915 65.11415701 9.71080168 66.07918785 7.92578125 67.05078125 C1.96448924 70.28778577 -2.85953833 72.71998092 -9.6796875 71.203125 C-13.84436673 69.84358096 -17.74020163 68.11256968 -21.6796875 66.203125 C-22.6696875 65.73390625 -23.6596875 65.2646875 -24.6796875 64.78125 C-30.17341811 62.00452746 -35.88399212 58.95966232 -38.6796875 53.203125 C-39.47223574 47.63127074 -37.38181034 43.9471712 -34.8046875 39.203125 C-30.54500393 31.19552196 -28.36711837 24.2023507 -27.55664062 15.125 C-26.93410313 9.24734867 -25.56522888 4.94725078 -21.1796875 0.890625 C-14.88631362 -3.35740237 -6.87656366 -2.63561673 0 0 Z " fill="#8C3FCC" transform="translate(786.6796875,61.796875)"/>
<path d="M0 0 C7.90729234 5.19898426 12.6038196 12.82708379 15.5546875 21.6796875 C16.40636429 31.02346296 17.21330603 41.74422838 11.5546875 49.6796875 C11.05710937 50.39382813 10.55953125 51.10796875 10.046875 51.84375 C5.13992219 58.120085 0.08076522 61.02780511 -7.78125 62.16015625 C-15.39219279 62.59766164 -20.15593537 61.61757055 -26.08984375 56.796875 C-26.86714844 56.09820313 -27.64445312 55.39953125 -28.4453125 54.6796875 C-29.25355469 53.98101563 -30.06179687 53.28234375 -30.89453125 52.5625 C-32.56811547 51.08596259 -34.22298852 49.58797062 -35.859375 48.0703125 C-37.6605087 46.40521609 -39.49128779 44.77185989 -41.34375 43.1640625 C-54.42807222 31.72843504 -54.42807222 31.72843504 -55.1328125 23.2421875 C-54.6704205 15.98138344 -49.79023341 10.7139425 -44.6953125 5.9296875 C-32.30674232 -4.33444579 -14.65000864 -7.18296823 0 0 Z " fill="#8C3FCC" transform="translate(125.4453125,479.3203125)"/>
</svg>
