<?xml version="1.0" encoding="UTF-8"?>
<svg version="1.1" xmlns="http://www.w3.org/2000/svg" width="900" height="600">
<path d="M0 0 C297 0 594 0 900 0 C900 198 900 396 900 600 C603 600 306 600 0 600 C0 402 0 204 0 0 Z " fill="#FEFEFE" transform="translate(0,0)"/>
<path d="M0 0 C30.31021868 6.17374971 59.18023454 9.43023342 90.10159492 9.27116203 C93.6769413 9.25339581 97.25224077 9.2433555 100.82762146 9.23524475 C110.97863183 9.21112397 121.12957855 9.17557327 131.28051758 9.13061523 C137.5346784 9.10345017 143.7888034 9.08666091 150.04301262 9.07574654 C152.39034285 9.06964567 154.73766714 9.05978487 157.08496284 9.04566765 C169.59181869 8.97111328 182.00622216 9.21174181 194.48413086 10.11938477 C195.57094682 10.19827659 196.65776278 10.27716841 197.77751255 10.35845089 C213.18132019 11.5915023 228.37205415 14.42910249 243.0703125 19.2265625 C244.10696045 19.54802246 244.10696045 19.54802246 245.16455078 19.87597656 C273.24180705 28.62464276 300.04244426 42.60363557 322.0703125 62.2265625 C323.05 63.08636719 324.0296875 63.94617188 325.0390625 64.83203125 C349.93637224 86.95596978 369.62943976 117.23434948 372.0703125 151.2265625 C373.76067314 182.66500907 367.96968208 213.93705228 357.93457031 243.66503906 C357.34418567 245.41484576 356.76049502 247.16692161 356.18261719 248.92089844 C338.01874156 304.02115779 316.65759668 368.20730269 282.0703125 415.2265625 C281.30460938 416.27457031 280.53890625 417.32257813 279.75 418.40234375 C263.45682124 440.32366397 243.73271427 457.30844882 216.07177734 461.8515625 C180.1109949 466.34446651 143.43216989 455.42953519 109.0703125 446.2265625 C70.23623207 435.86939377 31.45183373 428.06606801 -8.82836914 426.56787109 C-12.57324265 426.42319545 -16.25770435 426.2242511 -19.97265625 425.71875 C-23.50740668 425.27908706 -26.92087425 425.08575201 -30.47338867 424.98706055 C-51.24448189 424.36977033 -72.73435146 421.99132535 -92.86669922 416.76074219 C-95.08167736 416.18720702 -97.30359004 415.64782089 -99.52734375 415.109375 C-138.02031296 405.60274212 -174.39368826 388.08218027 -202.9296875 360.2265625 C-203.65285156 359.576875 -204.37601563 358.9271875 -205.12109375 358.2578125 C-215.32897221 348.85419113 -222.90024379 336.03618126 -227.9296875 323.2265625 C-228.31769531 322.24300781 -228.70570313 321.25945312 -229.10546875 320.24609375 C-241.96348571 284.8514798 -230.41857253 243.65924119 -219.9296875 209.2265625 C-219.60097656 208.13649902 -219.27226562 207.04643555 -218.93359375 205.92333984 C-214.62558797 191.66786467 -210.05442283 177.54056252 -205.10327148 163.49584961 C-202.21559266 155.23396808 -199.71985666 146.9093324 -197.4140625 138.46875 C-196.04531968 133.52033227 -194.50809502 128.62782272 -192.96482849 123.73187256 C-191.32366478 118.51582043 -189.73617815 113.28527763 -188.16796875 108.046875 C-168.46435902 42.45655055 -168.46435902 42.45655055 -150.9296875 19.2265625 C-150.23359375 18.28683594 -149.5375 17.34710938 -148.8203125 16.37890625 C-137.42901089 1.69543769 -122.23080289 -7.97898092 -103.87109375 -11.33203125 C-69.26445703 -15.20770018 -33.72857805 -6.89257929 0 0 Z " fill="#8C3ECC" transform="translate(380.9296875,74.7734375)"/>
<path d="M0 0 C1.49279879 0.31109098 2.98105062 0.64454892 4.46484375 0.99609375 C11.70307319 2.49531277 19.00214919 2.32409469 26.3671875 2.30273438 C34.48158758 2.45070285 41.49355825 3.86331073 47.6484375 9.51318359 C49 11.0625 49 11.0625 51 14 C51.433125 14.61875 51.86625 15.2375 52.3125 15.875 C54.39777835 22.3204058 52.61214433 28.30466129 50.3125 34.375 C49.90366577 35.48536621 49.90366577 35.48536621 49.48657227 36.61816406 C43.43150804 52.75324344 43.43150804 52.75324344 37 58 C31.25247418 59.91584194 25.86191735 59.39432965 20.125 57.625 C14.90248238 56.04130284 9.84585414 55.52403526 4.4375 55.0625 C-4.6322186 54.24247868 -13.36744028 52.83354637 -20 46 C-22.80490339 41.6475637 -23.56004345 38.07363822 -23 33 C-22.13246399 29.12437322 -20.99013611 25.35385435 -19.8125 21.5625 C-19.52052734 20.56412109 -19.22855469 19.56574219 -18.92773438 18.53710938 C-15.6925563 7.95494626 -12.52481149 -1.11687073 0 0 Z " fill="#8D3FCC" transform="translate(787,43)"/>
<path d="M0 0 C3.0625 2.125 3.0625 2.125 5 5 C5.598125 5.845625 6.19625 6.69125 6.8125 7.5625 C10.3844093 17.90223745 7.09172475 26.56405035 2.84228516 36.03710938 C1.98747125 38.02919743 1.2386857 40.03618161 0.51171875 42.078125 C-4.34195981 55.57547523 -4.34195981 55.57547523 -11 59 C-16.18183165 61.20208596 -20.90237944 61.33413847 -26.4375 61.3125 C-27.25798828 61.32861328 -28.07847656 61.34472656 -28.92382812 61.36132812 C-35.38328389 61.36648332 -40.3354295 60.59674507 -45.1484375 55.90625 C-47.68189276 51.92968732 -49.6587156 47.77994571 -51.625 43.5 C-52.01945312 42.65824219 -52.41390625 41.81648437 -52.8203125 40.94921875 C-58.85698825 27.99891774 -58.85698825 27.99891774 -58 22 C-53.25247058 17.11994513 -47.84255675 15.02909685 -41.5625 12.625 C-39.59776968 11.84935835 -37.63423019 11.07069368 -35.671875 10.2890625 C-34.71087891 9.9065332 -33.74988281 9.52400391 -32.75976562 9.12988281 C-27.68075935 7.05047366 -22.74592466 4.68880918 -17.80078125 2.3125 C-11.92296399 -0.4419583 -6.41753941 -0.76419955 0 0 Z " fill="#8C3FCC" transform="translate(118,487)"/>
</svg>
