<?xml version="1.0" encoding="UTF-8"?>
<svg version="1.1" xmlns="http://www.w3.org/2000/svg" width="900" height="600">
<path d="M0 0 C297 0 594 0 900 0 C900 198 900 396 900 600 C603 600 306 600 0 600 C0 402 0 204 0 0 Z " fill="#FEFEFE" transform="translate(0,0)"/>
<path d="M0 0 C0.90990692 -0.0033284 1.81981384 -0.0066568 2.7572937 -0.01008606 C4.67510477 -0.01512391 6.59292451 -0.01749536 8.51074219 -0.01733398 C11.40054302 -0.01950931 14.28995455 -0.03766813 17.1796875 -0.05664062 C27.4017505 -0.0893507 37.2265433 0.26723659 47.3046875 2.16796875 C48.5222876 2.37977783 49.7398877 2.59158691 50.99438477 2.80981445 C59.71440813 4.41779772 68.00159779 6.7451628 76.3671875 9.66796875 C76.98554474 9.88250702 77.60390198 10.09704529 78.24099731 10.31808472 C107.43288545 20.51009826 133.03902151 37.07595795 155.8125 57.8984375 C157.43674246 59.37756738 159.07681966 60.83954994 160.734375 62.28125 C171.72505487 71.88492714 181.15356064 82.76600841 189.95019531 94.38085938 C190.84818367 95.56566016 191.75113886 96.74671392 192.65917969 97.92382812 C214.17785914 125.84079024 228.32491836 158.05695476 242.3046875 190.16796875 C260.25688929 231.39909191 280.65089887 268.992417 307.66210938 304.96484375 C310.98944132 309.42766234 314.23016229 313.95340734 317.47949219 318.47314453 C320.16350061 322.20546627 322.85854046 325.92813294 325.5859375 329.62890625 C333.33427343 340.17525238 340.514741 350.98024543 347.3046875 362.16796875 C347.70059082 362.81781738 348.09649414 363.46766602 348.50439453 364.13720703 C353.55397699 372.48988323 357.81732335 381.04215602 361.3046875 390.16796875 C361.64628906 391.04453125 361.98789062 391.92109375 362.33984375 392.82421875 C366.13134897 404.25163912 366.2998363 418.59867104 360.921875 429.4609375 C339.78847909 464.83640456 295.46407187 480.08689997 259.49908447 495.93386841 C230.71927421 508.62959165 202.5773898 522.57030634 175.23095703 538.12182617 C163.69525868 544.67221395 152.06626656 551.03179282 140.3046875 557.16796875 C139.21671875 557.73580078 138.12875 558.30363281 137.0078125 558.88867188 C124.13332775 565.53184499 111.15544529 571.25556408 97.4296875 575.85546875 C96.21249023 576.26571289 94.99529297 576.67595703 93.74121094 577.09863281 C81.30839076 581.09941117 69.44847755 582.50940438 56.42114258 582.42871094 C54.37225653 582.41799526 52.32425031 582.42867585 50.27539062 582.44140625 C41.4658824 582.45097843 32.98343517 581.67436375 24.3046875 580.16796875 C23.143927 579.97291748 23.143927 579.97291748 21.9597168 579.77392578 C-17.72169443 572.67126638 -54.42996047 552.84074447 -90.12965393 534.95043945 C-93.68641938 533.16873203 -97.24868628 531.40011525 -100.82421875 529.65625 C-126.81074854 516.94619365 -153.38238838 502.72675096 -175.6953125 484.16796875 C-176.23687988 483.72501465 -176.77844727 483.28206055 -177.33642578 482.82568359 C-192.18722983 470.67734346 -205.95573024 457.57853492 -212.6953125 439.16796875 C-213.01242188 438.32234375 -213.32953125 437.47671875 -213.65625 436.60546875 C-221.14506615 413.52067769 -211.23740496 389.458689 -200.87207031 368.9909668 C-196.3411063 360.27480524 -191.33800158 351.83486032 -186.34375 343.37890625 C-148.05930525 278.4653667 -131.69670636 219.89595601 -125.48242188 145.26171875 C-122.06836234 104.52236748 -122.06836234 104.52236748 -118.0078125 88.35546875 C-117.62761963 86.81693237 -117.62761963 86.81693237 -117.23974609 85.24731445 C-112.20373897 65.80868946 -103.83643017 49.57140057 -89.6953125 35.16796875 C-88.98246094 34.430625 -88.26960938 33.69328125 -87.53515625 32.93359375 C-65.28582128 11.40936576 -30.52021166 0.03970664 0 0 Z " fill="#8C3ECC" transform="translate(375.6953125,8.83203125)"/>
<path d="M0 0 C6.86984585 3.07698763 11.20816559 8.29305281 15.734375 14.1328125 C17.95163969 16.9387992 20.30048494 19.52137638 22.75 22.125 C29.18430172 29.29175288 33.01151345 35.07191763 32.54296875 45 C31.46284613 50.96787173 28.66657819 55.71051367 24.06640625 59.66015625 C18.08763986 63.65765503 11.84820516 64.89502678 4.8125 65.875 C0.18601413 66.53516599 -3.97371 67.55666078 -8.375 69.125 C-16.44071543 71.93046624 -16.44071543 71.93046624 -21 71 C-27.77323273 65.45826413 -28.68838176 56.41905006 -29.6875 48.125 C-30.74345954 34.15038651 -30.60963696 22.89210609 -22.03515625 11.33203125 C-16.24471386 4.6969178 -9.14355429 -1.19915466 0 0 Z " fill="#8D3FCC" transform="translate(77,482)"/>
<path d="M0 0 C0.92441895 0.01208496 1.84883789 0.02416992 2.80126953 0.03662109 C12.26942907 0.31055522 21.25573292 1.90217762 28.28125 8.73828125 C31.92792057 13.11234622 34.96991669 17.75000323 35.3125 23.5625 C34.16569289 31.59014976 30.62246074 36.43117153 24.4453125 41.609375 C19.56226769 45.03458324 14.28950942 47.34101171 8.75 49.5 C8.07453125 49.768125 7.3990625 50.03625 6.703125 50.3125 C-0.39998132 52.57543653 -10.5840366 53.03299595 -17.69921875 50.6953125 C-23.08048916 47.31013155 -25.03904836 41.44168824 -26.83203125 35.60546875 C-28.76425339 25.87212547 -27.25561558 17.10000004 -22.15234375 8.69140625 C-16.60528849 1.15117181 -8.79472168 -0.18372261 0 0 Z " fill="#8D3FCC" transform="translate(771.25,70.5)"/>
</svg>
