<?xml version="1.0" encoding="UTF-8"?>
<svg version="1.1" xmlns="http://www.w3.org/2000/svg" width="900" height="600">
<path d="M0 0 C297 0 594 0 900 0 C900 198 900 396 900 600 C603 600 306 600 0 600 C0 402 0 204 0 0 Z " fill="#FEFEFE" transform="translate(0,0)"/>
<path d="M0 0 C9.11474513 7.28827324 17.39244783 15.42531467 25.65795898 23.64526367 C26.36339844 24.34594971 27.06883789 25.04663574 27.7956543 25.76855469 C32.34839948 30.33580248 36.65678424 35.05571427 40.84545898 39.95776367 C41.30734619 40.49264404 41.7692334 41.02752441 42.24511719 41.57861328 C47.86208776 48.09404665 53.29452774 54.72808095 58.57885742 61.51489258 C62.10994264 66.04400154 65.71299892 70.50965704 69.34545898 74.95776367 C73.44455648 79.97728829 77.48896005 85.03201526 81.47045898 90.14526367 C86.30342645 96.3370402 91.32116306 102.35042273 96.4362793 108.31030273 C97.86948438 109.98585157 99.29195636 111.67003341 100.71264648 113.35620117 C106.6154566 120.33761748 112.70263898 127.10404494 118.97216797 133.75830078 C121.95124838 136.92083751 124.88850408 140.09884236 127.72045898 143.39526367 C130.53863841 146.67369853 133.54845969 149.70548849 136.65795898 152.70776367 C138.55905791 154.66317971 140.34805678 156.66051041 142.13452148 158.71948242 C145.71856863 162.84676953 149.45329394 166.81076184 153.22045898 170.77026367 C159.05609791 176.95576961 164.56753491 183.28654146 169.84545898 189.95776367 C170.79685217 191.11934053 171.75009664 192.27940267 172.70483398 193.43823242 C196.17234657 222.05687529 212.0940641 254.99633135 216.84545898 291.95776367 C216.95631836 292.74795898 217.06717773 293.5381543 217.18139648 294.35229492 C222.19473174 337.37213127 210.92985478 382.96248487 184.18139648 417.27954102 C179.90105034 422.65656941 175.47109165 427.87450295 170.84545898 432.95776367 C170.37414551 433.47580566 169.90283203 433.99384766 169.41723633 434.52758789 C141.1676537 465.11574467 102.32225261 482.09822215 61.84545898 488.95776367 C59.48997567 489.37174334 57.13450802 489.78581207 54.77905273 490.19995117 C43.12098734 492.21880334 31.47267389 494.08225182 19.72045898 495.45776367 C-12.0900573 499.24625229 -43.05583089 506.57003773 -73.41430664 516.7121582 C-81.39928743 519.37138614 -89.40256206 521.97521846 -97.40454102 524.58276367 C-98.27804199 524.86758606 -99.15154297 525.15240845 -100.05151367 525.44586182 C-111.99101507 529.33464701 -123.93040766 533.1701171 -136.06811523 536.40209961 C-138.13319489 536.9520787 -140.19244109 537.52103551 -142.25219727 538.09057617 C-164.37107719 544.06843261 -191.52928978 549.08009669 -212.90454102 538.33276367 C-218.64797028 534.92392421 -223.44155673 530.66240639 -228.15454102 525.95776367 C-228.98405273 525.1456543 -228.98405273 525.1456543 -229.83032227 524.31713867 C-243.41036031 509.82200372 -250.54917517 487.38379018 -255.15454102 468.58276367 C-255.38915039 467.66366211 -255.62375977 466.74456055 -255.86547852 465.79760742 C-260.28842721 447.98691617 -263.03091518 429.85265633 -265.65454102 411.70776367 C-266.26553883 407.52383384 -266.87958489 403.34035509 -267.49438477 399.15698242 C-267.71486732 397.6533036 -267.71486732 397.6533036 -267.93980408 396.11924744 C-268.95301667 389.23861842 -270.05652888 382.37755087 -271.21704102 375.52026367 C-273.23242559 363.35826946 -274.73398108 351.12381444 -276.27954102 338.89526367 C-276.4080545 337.88972443 -276.53656799 336.88418518 -276.66897583 335.84817505 C-279.65033939 312.42761825 -281.51210431 289.31096324 -281.47021484 265.68530273 C-281.46704354 261.96072358 -281.49067728 258.23693381 -281.51586914 254.51245117 C-281.56885232 234.02291659 -279.8091096 213.9393584 -275.15454102 193.95776367 C-274.96021484 193.09779785 -274.76588867 192.23783203 -274.56567383 191.35180664 C-269.5185543 169.20558936 -262.03134837 148.40063706 -252.15454102 127.95776367 C-251.72189941 127.05977051 -251.28925781 126.16177734 -250.84350586 125.23657227 C-240.87395897 104.79454249 -228.58278609 85.55494111 -214.15454102 67.95776367 C-213.72898926 67.43746582 -213.3034375 66.91716797 -212.86499023 66.38110352 C-201.33915169 52.35092673 -189.08337736 38.64492791 -175.15454102 26.95776367 C-174.60797852 26.49740723 -174.06141602 26.03705078 -173.49829102 25.56274414 C-123.08893757 -16.71649907 -58.01019938 -45.30736097 0 0 Z " fill="#8C3ECC" transform="translate(482.154541015625,40.042236328125)"/>
<path d="M0 0 C1.30324219 -0.02126953 1.30324219 -0.02126953 2.6328125 -0.04296875 C4.875 0.1875 4.875 0.1875 6.875 2.1875 C7.13378906 4.07250977 7.13378906 4.07250977 7.140625 6.37890625 C7.14481445 7.23291016 7.14900391 8.08691406 7.15332031 8.96679688 C7.14397461 9.88525391 7.13462891 10.80371094 7.125 11.75 C7.11484863 13.16442383 7.11484863 13.16442383 7.10449219 14.60742188 C6.84141416 32.75368765 5.31697624 52.49177025 -8.0625 66.16796875 C-13.04176661 70.53520051 -15.99395493 71.60043985 -22.45703125 71.53515625 C-30.01440519 70.55037399 -35.32691188 64.45762331 -40.046875 58.94140625 C-47.59356756 48.94062006 -54.20836596 34.33013567 -53.625 21.66015625 C-52.72705655 17.21954529 -50.57833354 14.96325403 -47.125 12.1875 C-39.52909316 7.3949746 -31.47126842 5.63254277 -22.75 3.9375 C-20.26298957 3.43244557 -17.77600906 2.92724382 -15.2890625 2.421875 C-14.20061035 2.20756836 -13.1121582 1.99326172 -11.99072266 1.77246094 C-10.28496829 1.42427663 -8.58372278 1.04986805 -6.89648438 0.62084961 C-4.57415 0.05274824 -2.38786313 0.01781987 0 0 Z " fill="#8C3FCC" transform="translate(796.125,53.8125)"/>
<path d="M0 0 C3.0625 2.125 3.0625 2.125 5 5 C5.598125 5.845625 6.19625 6.69125 6.8125 7.5625 C10.3844093 17.90223745 7.09172475 26.56405035 2.84228516 36.03710938 C1.98747125 38.02919743 1.2386857 40.03618161 0.51171875 42.078125 C-4.34195981 55.57547523 -4.34195981 55.57547523 -11 59 C-16.18183165 61.20208596 -20.90237944 61.33413847 -26.4375 61.3125 C-27.25798828 61.32861328 -28.07847656 61.34472656 -28.92382812 61.36132812 C-35.38328389 61.36648332 -40.3354295 60.59674507 -45.1484375 55.90625 C-47.68189276 51.92968732 -49.6587156 47.77994571 -51.625 43.5 C-52.01945312 42.65824219 -52.41390625 41.81648437 -52.8203125 40.94921875 C-58.85698825 27.99891774 -58.85698825 27.99891774 -58 22 C-53.25247058 17.11994513 -47.84255675 15.02909685 -41.5625 12.625 C-39.59776968 11.84935835 -37.63423019 11.07069368 -35.671875 10.2890625 C-34.71087891 9.9065332 -33.74988281 9.52400391 -32.75976562 9.12988281 C-27.68075935 7.05047366 -22.74592466 4.68880918 -17.80078125 2.3125 C-11.92296399 -0.4419583 -6.41753941 -0.76419955 0 0 Z " fill="#8C3FCC" transform="translate(120,488)"/>
</svg>
