<?xml version="1.0" encoding="UTF-8"?>
<svg version="1.1" xmlns="http://www.w3.org/2000/svg" width="900" height="600">
<path d="M0 0 C297 0 594 0 900 0 C900 198 900 396 900 600 C603 600 306 600 0 600 C0 402 0 204 0 0 Z " fill="#FEFEFE" transform="translate(0,0)"/>
<path d="M0 0 C39.32065684 17.52943668 79.08330322 33.12896637 120.79736328 44.00439453 C124.89137686 45.08615442 128.96223826 46.24428979 133.03515625 47.40234375 C141.91086261 49.89822665 150.8695491 52.00496813 159.84667969 54.10058594 C162.89403384 54.81767131 165.93756141 55.54943641 168.98046875 56.28515625 C170.03911133 56.54111572 171.09775391 56.7970752 172.18847656 57.06079102 C173.25163086 57.31787842 174.31478516 57.57496582 175.41015625 57.83984375 C181.87762747 59.40365117 188.34535466 60.93230496 194.85449219 62.31298828 C205.33697121 64.54515074 215.51338671 67.52917717 225.72265625 70.77734375 C226.77727051 71.10895508 227.83188477 71.44056641 228.91845703 71.78222656 C286.62684386 90.02352745 286.62684386 90.02352745 300.78515625 114.08984375 C307.58026818 128.80466655 303.98007229 145.13399033 298.72265625 159.77734375 C294.10125056 171.82079423 288.51684917 183.4294208 282.703125 194.93359375 C282.23331553 195.86340404 282.23331553 195.86340404 281.75401497 196.81199837 C278.83363351 202.58459463 275.89690296 208.34882658 272.95092773 214.10839844 C249.90850482 259.19754314 235.11273305 305.07357192 228.20556641 355.31591797 C217.04743067 435.29572005 217.04743067 435.29572005 190.3671875 457.83984375 C151.38836046 486.3974482 90.95113767 479.90921661 45.25811768 480.61999512 C25.77698614 480.92841105 6.38228338 481.49625987 -13.03125 483.234375 C-114.32590745 492.21399182 -114.32590745 492.21399182 -146.15234375 468.08984375 C-157.63922595 457.10495897 -163.37188319 442.31654938 -166.52734375 427.08984375 C-166.67856689 426.3620874 -166.82979004 425.63433105 -166.9855957 424.88452148 C-169.9343531 409.15504031 -170.56683062 393.20710878 -170.582304 377.24530411 C-170.58606272 374.11848553 -170.60304082 370.99195858 -170.62306213 367.86520386 C-170.67756514 358.98994473 -170.70887785 350.11464471 -170.73364258 341.23925781 C-170.86917175 297.07237296 -173.82981409 254.99939627 -186.83984375 212.5546875 C-188.08668876 208.46266555 -189.20736442 204.35655539 -190.27734375 200.21484375 C-191.45560919 195.68453335 -192.75900785 191.2409926 -194.23461914 186.80224609 C-199.53899278 170.73128859 -203.5528431 154.27586023 -207.27734375 137.77734375 C-207.42896973 137.11045532 -207.5805957 136.44356689 -207.73681641 135.75646973 C-211.94182448 117.03513564 -212.73571674 98.72116875 -212.77734375 79.58984375 C-212.78210724 78.51314423 -212.78687073 77.4364447 -212.79177856 76.32711792 C-212.82226552 58.07971944 -211.60708123 40.00501991 -206.46484375 22.40234375 C-206.20622559 21.49226563 -205.94760742 20.5821875 -205.68115234 19.64453125 C-198.90000788 -3.61918908 -188.21770807 -24.6037773 -166.953125 -37.6484375 C-118.44329361 -64.12964981 -44.08132402 -19.6587503 0 0 Z " fill="#8C3ECC" transform="translate(404.27734375,79.22265625)"/>
<path d="M0 0 C14.35835115 1.91553457 27.21337021 7.71976706 36.5546875 19.03271484 C40.3846365 24.44908879 41.45470691 29.55867802 41.7421875 36.11083984 C40.78551717 39.61653309 38.94837958 41.00029897 36.1484375 43.28662109 C33.04664008 44.95695891 29.83658969 46.30894989 26.5859375 47.66162109 C19.61322267 50.66588311 13.08362304 53.81858605 6.65625 57.87646484 C-0.99691777 62.17988161 -9.80372067 62.50763648 -18.328125 60.78662109 C-23.97514946 58.86794097 -27.83428858 55.57286487 -31.7265625 51.16162109 C-33.89475509 45.62068446 -34.32105313 40.74997187 -31.9375 35.13232422 C-29.89963559 30.99767755 -27.64969362 26.99077545 -25.390625 22.97412109 C-22.67836454 18.11375034 -20.7949342 13.25019557 -19.08203125 7.95068359 C-15.01693341 -0.85057586 -8.59161626 -0.79248877 0 0 Z " fill="#8C3FCC" transform="translate(775.8515625,55.71337890625)"/>
<path d="M0 0 C6.79731313 5.03898039 10.88352625 12.57372119 15.25 19.66796875 C16.60094681 21.78294717 17.95212193 23.89777521 19.3046875 26.01171875 C21.60423137 30.04067164 21.80856036 34.15780227 21.25 38.66796875 C18.30013038 46.31081275 12.216729 50.08417407 5.125 53.7734375 C-2.66484581 56.91593211 -12.07097261 57.13852022 -20.03125 54.63671875 C-29.23928867 50.36494823 -38.99203367 43.40451787 -42.75 33.66796875 C-44.54819191 24.4843458 -40.36311006 17.29983237 -35.51953125 9.75 C-28.04064973 -0.17930004 -11.44028099 -5.54138611 0 0 Z " fill="#8C3FCC" transform="translate(103.75,473.33203125)"/>
</svg>
