<?xml version="1.0" encoding="UTF-8"?>
<svg version="1.1" xmlns="http://www.w3.org/2000/svg" width="900" height="600">
<path d="M0 0 C297 0 594 0 900 0 C900 198 900 396 900 600 C603 600 306 600 0 600 C0 402 0 204 0 0 Z " fill="#FEFEFE" transform="translate(0,0)"/>
<path d="M0 0 C0.77379501 -0.00705963 1.54759003 -0.01411926 2.34483337 -0.02139282 C18.63110201 -0.13620765 34.54109772 -0.14979417 50.546875 3.203125 C51.60938477 3.41775391 52.67189453 3.63238281 53.76660156 3.85351562 C66.56381385 6.46401749 79.06675475 9.52343536 91.49325562 13.54052734 C93.50875599 14.19082595 95.52695697 14.83194993 97.54614258 15.47070312 C150.93369281 32.41464796 201.65357138 55.86260157 251.97949219 80.25097656 C262.87514261 85.53044714 273.82898488 90.65068661 284.859375 95.640625 C372.67828499 135.37405804 372.67828499 135.37405804 397.546875 159.203125 C398.45179688 160.03328125 399.35671875 160.8634375 400.2890625 161.71875 C410.57768501 171.46586606 417.97527626 182.70346283 422.546875 196.203125 C422.86527344 197.10160156 423.18367187 198.00007812 423.51171875 198.92578125 C433.39225657 232.75637849 419.58648996 271.88075169 403.78564453 301.58422852 C392.11025669 322.73292573 376.17768857 340.74730715 359.171875 357.765625 C358.30304688 358.64669922 357.43421875 359.52777344 356.5390625 360.43554688 C351.27079167 365.71550765 345.81862966 370.56030363 339.99755859 375.22241211 C337.05250238 377.60269115 334.30299561 380.10724396 331.546875 382.703125 C327.8837839 386.11895893 324.1495146 389.38931353 320.234375 392.515625 C314.24733638 397.33467198 308.70264076 402.58037116 303.1171875 407.8515625 C300.24244671 410.56281092 297.31984476 413.21034627 294.359375 415.828125 C290.58596699 419.20532517 286.94845395 422.69499746 283.359375 426.265625 C282.88411377 426.73629395 282.40885254 427.20696289 281.91918945 427.69189453 C269.29530423 440.37022121 258.08508409 454.78046866 247.546875 469.203125 C245.36155377 472.18389451 243.17364056 475.1627514 240.984375 478.140625 C240.39487061 478.94250244 239.80536621 479.74437988 239.19799805 480.57055664 C232.09812434 490.20400309 224.84317795 499.71793116 217.546875 509.203125 C217.00869141 509.90405273 216.47050781 510.60498047 215.91601562 511.32714844 C210.70275339 518.10169167 205.37250686 524.69403194 199.578125 530.98828125 C197.76845512 532.96151744 196.02847609 534.97420313 194.296875 537.015625 C176.96586909 556.73163172 156.07488284 573.58386751 129.546875 578.203125 C84.26093373 581.11055235 44.95445095 561.68790924 10.90429688 532.81005859 C8.53002135 530.7215755 6.21260034 528.57711889 3.90625 526.4140625 C1.91390652 524.54706513 -0.11541246 522.77322914 -2.203125 521.015625 C-12.55997112 511.98274684 -21.98927 502.01472776 -30.453125 491.203125 C-31.33285376 490.14456503 -32.21585161 489.08871599 -33.1015625 488.03515625 C-71.17369228 442.34340384 -93.04268989 386.35177824 -110.453125 330.203125 C-110.88818359 328.812146 -110.88818359 328.812146 -111.33203125 327.39306641 C-118.61725991 303.89644427 -122.99597947 279.6778879 -126.0625 255.29833984 C-126.30221457 253.3989015 -126.55028013 251.50046636 -126.8125 249.60400391 C-136.15984414 181.76621021 -124.89146455 99.58905268 -82.76953125 43.91894531 C-65.94062416 21.98393807 -43.7090466 4.77748517 -15.48400879 0.93505859 C-10.30790248 0.332308 -5.2092532 0.03192611 0 0 Z " fill="#8C3ECC" transform="translate(301.453125,10.796875)"/>
<path d="M0 0 C1.32026081 0.59953464 2.63618402 1.20867934 3.94848633 1.82543945 C6.6676149 3.09865032 9.40855826 4.31939561 12.14916992 5.5456543 C14.22991987 6.49719394 16.30934948 7.45162608 18.38745117 8.40893555 C19.38381592 8.85922119 20.38018066 9.30950684 21.40673828 9.7734375 C27.01243053 12.42453946 30.89831199 14.62243112 34.26245117 19.90893555 C35.652343 24.52010607 34.46040651 29.22044655 32.69995117 33.59643555 C29.56149641 39.40302908 24.71419747 43.44538528 19.85400391 47.78857422 C15.62199647 51.57510719 12.09706525 55.41777177 8.72338867 59.9987793 C5.8196447 63.79538572 2.90635813 67.18247887 -1.82739258 68.4831543 C-8.53171403 69.01337304 -13.63603171 66.0036856 -18.73754883 61.90893555 C-24.46383968 56.17152568 -27.80549348 49.38406566 -30.73754883 41.90893555 C-31.05852539 41.17674805 -31.37950195 40.44456055 -31.71020508 39.69018555 C-35.21352713 30.43489752 -35.4266318 18.08058485 -32.82348633 8.5690918 C-31.66410495 6.08203174 -30.42875761 4.06261965 -28.73754883 1.90893555 C-27.53098633 0.36206055 -27.53098633 0.36206055 -26.30004883 -1.21606445 C-18.83242385 -6.53103223 -7.62068023 -3.29612766 0 0 Z " fill="#8C3FCC" transform="translate(785.737548828125,46.091064453125)"/>
<path d="M0 0 C4.86072626 1.53022864 7.68693652 4.64397413 11.375 8.0625 C17.24119506 13.13807642 23.0857136 17.25248424 30.02734375 20.73828125 C34.04563722 23.00483947 34.04563722 23.00483947 35.375 25.0625 C36.13503268 31.62833792 34.50237027 35.92679592 31.625 41.75 C28.55641837 48.25030902 26.10524541 54.50050026 24.26171875 61.4609375 C23.3286444 64.19850365 22.33408629 65.94378446 20.375 68.0625 C12.7404582 70.60734727 5.38981026 68.36822788 -2.125 66.375 C-3.11886719 66.13072266 -4.11273438 65.88644531 -5.13671875 65.63476562 C-13.56357113 63.43621431 -20.60805279 60.48758188 -25.625 53.0625 C-28.03346342 48.24557317 -27.61027942 42.09895204 -25.98046875 37.07617188 C-22.73779362 28.96948404 -18.34858801 21.33035727 -13.9375 13.8125 C-13.58179932 13.20494873 -13.22609863 12.59739746 -12.85961914 11.97143555 C-10.52555126 8.14231566 -7.89325265 5.11937312 -4.625 2.0625 C-2.625 0.0625 -2.625 0.0625 0 0 Z " fill="#8D40CC" transform="translate(93.625,471.9375)"/>
</svg>
